<?xml version="1.0" encoding="utf-8"?>
<!-- Generator: Adobe Illustrator 22.1.0, SVG Export Plug-In . SVG Version: 6.00 Build 0)  -->
<svg version="1.1" id="Layer_1" xmlns="http://www.w3.org/2000/svg" xmlns:xlink="http://www.w3.org/1999/xlink" x="0px" y="0px"
	 viewBox="0 0 188 204" style="enable-background:new 0 0 188 204;" xml:space="preserve">
<style type="text/css">
	.st0{fill:#DD0031;}
	.st1{fill:#C3002F;}
	.st2{fill:#FFFFFF;}
</style>
<g>
	<polygon class="st0" points="94.9,1 94.9,1 94.9,1 1.8,34.2 16,157.3 94.9,201 94.9,201 94.9,201 173.8,157.3 188.1,34.2 	"/>
	<polygon class="st1" points="94.9,1 94.9,23.2 94.9,23.1 94.9,124.4 94.9,124.4 94.9,201 94.9,201 173.8,157.3 188.1,34.2 	"/>
	<path class="st2" d="M94.9,23.1L36.8,153.6l0,0h21.7l0,0l11.7-29.2h49.4l11.7,29.2l0,0h21.7l0,0L94.9,23.1L94.9,23.1L94.9,23.1
		L94.9,23.1L94.9,23.1z M111.9,106.4h-34l17-40.9L111.9,106.4z"/>
</g>
</svg>
