<?xml version="1.0" encoding="utf-8"?>
<!-- Generator: Adobe Illustrator 22.1.0, SVG Export Plug-In . SVG Version: 6.00 Build 0)  -->
<svg version="1.1" id="Capa_1" xmlns="http://www.w3.org/2000/svg" xmlns:xlink="http://www.w3.org/1999/xlink" x="0px" y="0px"
	 viewBox="0 0 188 167.4" style="enable-background:new 0 0 188 167.4;" xml:space="preserve">
<style type="text/css">
	.st0{fill:#61DAFB;}
</style>
<g>
	<path class="st0" d="M188,83.7c0-12.5-15.6-24.3-39.5-31.6c5.5-24.4,3.1-43.8-7.7-50c-2.5-1.5-5.4-2.1-8.6-2.1v8.5
		c1.8,0,3.2,0.3,4.4,1c5.2,3,7.5,14.4,5.7,29c-0.4,3.6-1.1,7.4-2,11.3c-7.5-1.8-15.7-3.3-24.3-4.2c-5.2-7.1-10.5-13.5-15.9-19.2
		c12.5-11.6,24.2-18,32.2-18V0c-10.5,0-24.3,7.5-38.3,20.5C80,7.6,66.2,0.2,55.6,0.2v8.5c7.9,0,19.7,6.3,32.2,17.9
		c-5.4,5.6-10.7,12-15.8,19.1c-8.7,0.9-16.9,2.3-24.4,4.2c-0.9-3.8-1.5-7.5-2-11.1c-1.8-14.6,0.4-26,5.6-29c1.1-0.7,2.6-1,4.4-1V0.2
		c-3.2,0-6.1,0.7-8.7,2.1c-10.8,6.2-13.2,25.6-7.6,49.9C15.5,59.5,0,71.3,0,83.7c0,12.5,15.6,24.3,39.5,31.6
		c-5.5,24.4-3.1,43.8,7.7,50c2.5,1.5,5.4,2.1,8.6,2.1c10.5,0,24.3-7.5,38.3-20.5c13.9,13,27.7,20.4,38.3,20.4c3.2,0,6.1-0.7,8.7-2.1
		c10.8-6.2,13.2-25.6,7.6-49.9C172.5,107.9,188,96.1,188,83.7L188,83.7z M138.1,58.2c-1.4,4.9-3.2,10-5.2,15.1
		c-1.6-3.1-3.2-6.1-5-9.2c-1.8-3.1-3.6-6.1-5.5-9C127.8,55.9,133.1,56.9,138.1,58.2L138.1,58.2z M120.6,99c-3,5.2-6.1,10.1-9.2,14.6
		c-5.7,0.5-11.5,0.8-17.3,0.8c-5.8,0-11.6-0.3-17.2-0.7c-3.2-4.6-6.3-9.4-9.3-14.6c-2.9-5-5.6-10.1-8-15.3
		c2.4-5.1,5.1-10.3,7.9-15.3c3-5.2,6.1-10.1,9.2-14.6c5.7-0.5,11.5-0.8,17.3-0.8c5.8,0,11.6,0.3,17.2,0.7c3.2,4.6,6.3,9.4,9.3,14.6
		c2.9,5,5.6,10.1,8,15.3C126.1,88.8,123.4,94,120.6,99L120.6,99z M132.9,94c2.1,5.1,3.8,10.3,5.3,15.3c-5,1.2-10.3,2.3-15.8,3.1
		c1.9-3,3.8-6,5.5-9.1C129.7,100.2,131.4,97.1,132.9,94L132.9,94z M94.1,134.9c-3.6-3.7-7.1-7.8-10.7-12.3c3.4,0.2,7,0.3,10.5,0.3
		c3.6,0,7.2-0.1,10.7-0.3C101.2,127.1,97.6,131.2,94.1,134.9z M65.6,112.3c-5.4-0.8-10.7-1.8-15.7-3c1.4-4.9,3.2-10,5.2-15.1
		c1.6,3.1,3.2,6.1,5,9.2C61.8,106.4,63.7,109.4,65.6,112.3z M93.9,32.6c3.6,3.7,7.1,7.8,10.7,12.3c-3.4-0.2-7-0.3-10.5-0.3
		c-3.6,0-7.2,0.1-10.7,0.3C86.8,40.4,90.4,36.3,93.9,32.6z M65.5,55.1c-1.9,3-3.8,6-5.5,9.1c-1.8,3.1-3.4,6.1-5,9.2
		c-2.1-5.1-3.8-10.3-5.3-15.3C54.8,57,60,55.9,65.5,55.1L65.5,55.1z M30.8,103.1C17.3,97.3,8.5,89.7,8.5,83.7s8.8-13.6,22.3-19.4
		c3.3-1.4,6.9-2.7,10.6-3.9c2.2,7.5,5.1,15.3,8.6,23.3c-3.5,8-6.4,15.7-8.5,23.2C37.8,105.8,34.2,104.5,30.8,103.1L30.8,103.1z
		 M51.5,157.9c-5.2-3-7.5-14.4-5.7-29c0.4-3.6,1.1-7.4,2-11.3c7.5,1.8,15.7,3.3,24.3,4.2c5.2,7.1,10.5,13.5,15.9,19.2
		c-12.5,11.6-24.2,18-32.2,18C54.1,158.9,52.6,158.5,51.5,157.9L51.5,157.9z M142.4,128.7c1.8,14.6-0.4,26-5.6,29
		c-1.1,0.7-2.6,1-4.4,1c-7.9,0-19.7-6.3-32.2-17.9c5.4-5.6,10.7-12,15.8-19.1c8.7-0.9,16.9-2.3,24.4-4.2
		C141.2,121.4,141.9,125.1,142.4,128.7z M157.1,103.1c-3.3,1.4-6.9,2.7-10.6,3.9c-2.2-7.5-5.1-15.3-8.6-23.3
		c3.5-8,6.4-15.7,8.5-23.2c3.8,1.2,7.4,2.5,10.8,3.9c13.6,5.8,22.3,13.4,22.3,19.4C179.5,89.7,170.7,97.4,157.1,103.1L157.1,103.1z"
		/>
	<circle class="st0" cx="94" cy="83.7" r="17.5"/>
	<path class="st0" d="M132.1,0"/>
</g>
</svg>
